<svg id="Layer_1" data-name="Layer 1" xmlns="http://www.w3.org/2000/svg" viewBox="0 0 142.53 142.53"><defs><style>.cls-1{fill:#fff;}.cls-2{fill:#5195cf;}</style></defs><title>Untitled-1</title><circle class="cls-1" cx="71.27" cy="71.27" r="71.27"/><path class="cls-2" d="M71.54,47.91a17.32,17.32,0,0,1,10.9-4.62,51,51,0,0,1,9.12-.08c4.91.48,9.81,1.25,14.68,2.06,3,.5,4.15,2.12,4.15,5.21q0,24.34,0,48.68c0,3.92-2.26,5.7-6.11,4.89a84.46,84.46,0,0,0-19-1.91c-2.66.05-5.33.38-7.59,2a37.07,37.07,0,0,0-3.3,2.93c-2,1.77-4.3,1.8-6-.21-3-3.55-6.85-4.7-11.25-4.71a88.84,88.84,0,0,0-18.87,2c-3.32.72-5.68-1.17-5.68-4.56q0-24.8,0-49.6a4.3,4.3,0,0,1,3.82-4.68,95.78,95.78,0,0,1,22.9-2.19C63.43,43.27,67,44.59,71.54,47.91ZM68.37,98.79V97.62q0-20.49,0-41c0-3.2-1.31-5.38-4.36-6.39a24.41,24.41,0,0,0-6.86-1.32,75.19,75.19,0,0,0-16.68,1.72c-1.21.24-1.64.66-1.64,1.93,0,14.58,0,29.15,0,43.73v1.56c1-.16,1.87-.33,2.72-.42,3.71-.39,7.41-.9,11.13-1.09a44.41,44.41,0,0,1,8.69.25C63.75,96.94,66,98,68.37,98.79Zm35.47-1c0-.4.08-.69.08-1q0-22.25,0-44.51c0-1.07-.42-1.46-1.41-1.58-4.6-.58-9.19-1.33-13.8-1.75A19.59,19.59,0,0,0,78.4,50.44,5.89,5.89,0,0,0,74.63,56q0,20.95,0,41.9c0,.36.06.71.08,1a51.38,51.38,0,0,1,5.07-2c4.74-1.29,9.58-.79,14.38-.39C97.35,96.81,100.52,97.32,103.84,97.75Z"/></svg>