<svg id="Layer_1" data-name="Layer 1" xmlns="http://www.w3.org/2000/svg" viewBox="0 0 142.53 142.53"><defs><style>.cls-1{fill:#fff;}.cls-2{fill:#5195cf;}</style></defs><title>Untitled-1</title><circle class="cls-1" cx="71.27" cy="71.27" r="71.27"/><path class="cls-2" d="M28.36,104.69V57.86c.21,0,.13-.22.13-.33q0-9.14,0-18.27c0-.14,0-.29,0-.43a2.57,2.57,0,0,1,2.63-2.47H60.3A2.6,2.6,0,0,1,63,39c0,1,0,2,0,2.93,0,.48-.07.44.43.44h44.23a3.64,3.64,0,0,1,2,.59,1.42,1.42,0,0,1,.67.9,6,6,0,0,1,.19,1.27c0,4.22,0,8.44,0,12.65v.31H122.6a1.67,1.67,0,0,1,1.77,1.39.36.36,0,0,0,0,.08V60l-.18.59-10.59,35.3-2.69,9a1.79,1.79,0,0,1-.78,1.08,2,2,0,0,1-1.06.23H30a1.66,1.66,0,0,1-1.58-1.3A1.81,1.81,0,0,0,28.36,104.69Zm5.36-15.53h.05l.07-.2L40.9,69.31A1.69,1.69,0,0,1,42.75,68h21a.75.75,0,0,0,.6-.26q4.28-4.48,8.56-9a2.07,2.07,0,0,1,1.6-.67h30.75V47.64H57.75V41.59h-24Z"/></svg>