<svg id="Layer_1" data-name="Layer 1" xmlns="http://www.w3.org/2000/svg" viewBox="0 0 254.7 856.59"><defs><style>.cls-1{fill:#d8e1f3;}.cls-2{fill:#2a2d80;}</style></defs><title>Untitled-1</title><polygon class="cls-1" points="184.57 197.94 97.52 84.36 37.41 214.52 110.99 305.77 184.57 197.94"/><path class="cls-2" d="M126,498.08c-1.5,3.56-3.61,7-4.37,10.7-1.48,7.19-2.26,14.53-3.25,21.83-1.77,13.14-4.73,26.29-4.76,39.45,0,8-.39,15.41-3.2,22.8-.75,2-1.7,4-1.69,6,.06,12.87-1.47,26.1,1,38.53,4.24,21.52,4.94,43.21,6.81,64.86,2.51,29.11,5,58.19-4.41,86.69-.5,1.52-.78,3.8,0,4.94,4.36,6.44,2.09,13.41,2.41,20.25s-2.21,10.54-8.48,12c-6.61,1.49-13,3-13.59,11.52,0,.67-1,1.35-1.6,1.88-9.07,7.74-31.67,10-42.5,4.67-3.89-1.93-4.5-4.6-3.59-8.25,1.8-7.27,4.46-13.86,10.7-18.81A46.87,46.87,0,0,0,66,805.5c1.79-2.87,2.75-7.37,1.92-10.57-6.44-24.68-8.83-49.72-9.51-75.17-1.21-45-3.1-90-5.38-135-1.15-22.79-3.27-45.56-5.88-68.23s-1-45.2-4.43-67.87c-2.95-19.75-.81-40.47.75-60.63s2.38-40.85,10.88-60.13c3.92-8.9,2.43-13.13-3.53-20.15-1.06,10.14-1.74,19.1-3,28-4.43,32.41-9,64.8-13.57,97.19-.9,6.41,0,13.61-5.94,16,.83,6.62,1.81,12.08,2.11,17.58a159,159,0,0,1-.08,18.21c-.24,3.91,2.86,10.56-3.94,10.58-5.7,0-4.87-6.29-5-10.65-.07-2.81,0-5.63,0-8.45l-1.79.14c-2.29,12.26-3.37,18.33,8.7,23.6,1.36.59,2.27,2.2,3.39,3.34L28,506.19c3.63,3.86,3.63,3.86.93,12.05-18.55-3.41-29.21-30-27.06-44.86.75-5.21,3-10.37,2.86-15.5-.2-6.39-3-12.7-3.27-19.1C.58,420.44-.15,402.06,0,383.7s2-36.69,2.19-55c.11-11.77,2.5-22.89,4.86-34.29,2.75-13.33,3.52-27.16,4-40.82.43-11.12-1.21-22.31-1.12-33.46.12-14.15,1.43-28.29,1.46-42.44,0-6,2.09-8.93,7.17-11.83,19.15-10.94,38.26-22,55-36.78a387,387,0,0,0,18.06,98.73,3.7,3.7,0,0,0,.9-2.39c.55-14.53-.07-29.24,6.87-42.78.59-1.15.2-2.83.2-4.27a27.15,27.15,0,0,0-9.52-21c7.87-6.36,19.08-7.47,27.18-2.93-1,1.29-2.83,2.48-3,3.87-.94,7.88-3.2,15.76.74,23.64a38.74,38.74,0,0,1,3.27,11.48c1,7,1.55,14.1,2.28,21.16a204.59,204.59,0,0,0,5.63-23.56c1.55-7.87,2.6-15.88,4.76-23.59,3.3-11.78,2-22.88-3-33.81-1.13-2.49-2-5.08-3.07-7.66-6.29,7-12.35,14.06-18.79,20.74-1.68,1.74-5.34,3.88-6.78,3.17-9.85-4.84-20.09-9.86-23.17-21.72-1.82-7-3.17-13.87-9.61-18.51a8.73,8.73,0,0,1-3-6.08c-.3-10.36-8.78-17.17-11.08-26.81C51.1,71.07,49.9,67,55.15,64.47c-2.35-7.15-6-13.8-6.51-20.67C47.32,24.86,61.49,6.36,80,1.54,93-1.87,104.71-.1,113.31,11.73a10.35,10.35,0,0,0,4.89,3.62c8,2.51,12.24,8.48,13.58,16.08,1.08,6.12.5,12.54.64,18.83.06,2.63-.82,5.78.31,7.81,4.91,8.82,3.95,19.22-1.24,25.09-6.48,7.33-3.83,14.1-4.28,21.24-.1,1.64.8,4.13,2.07,5,8.46,5.51,16.59,12.13,25.86,15.63,17.53,6.62,35.64,11.85,53.76,16.68,8,2.13,12,6.29,13,14,.71,5.41.4,11.16,2.16,16.2,5.12,14.64,12,28.38,13,44.59,1.07,17.4,5.31,34.6,8.05,51.91,1.25,7.9,2.16,15.85,3.39,23.76.73,4.71,1.88,9.36,2.68,14.07a84.12,84.12,0,0,1,1.06,9.4c.92,17.07,2.71,34.17,2.33,51.22-.36,16.15-3.06,32.24-4.65,48.37-.46,4.69,1.75,10.14-4.59,12.91-1,.46-1.57,3-1.68,4.58C243.07,442.8,243.06,453,242,463c-1.45,13.1-5.2,25.47-18.5,31.5-6.16,2.79-13,4.05-20.12,6.17.08-.29-.18.3-.25.91q-3.81,34.29-7.62,68.58a20.82,20.82,0,0,1-1.53,6.76c-3.86,7.88-2.23,14.75,2,22.16a22.18,22.18,0,0,1,2.35,14.38,139.14,139.14,0,0,0-3,33c.32,15.93-2,32-4.33,47.87-5.28,35.47-16.61,69.79-19.83,105.75a53.13,53.13,0,0,0,3,24.52c2.13,5.66,4.08,11.61,4.69,17.57.7,6.89-4.6,14.31-9.84,14.41-11.75.24-23.31-1-32.84-9.08-3.3-2.8-4.67-5.9-3.4-10.59,1.54-5.71,3.2-11.78-3.05-16.62-1.71-1.32-2.61-5-2.27-7.39,1.22-8.65.15-17.82,5.46-25.67.83-1.23.77-3.31.59-4.94-1.56-14.14-.08-27.77,6-40.82,1-2.08.77-4.9.52-7.32-.87-8.32-2.75-16.6-2.86-24.92-.15-12,2.38-24.23,1.09-36.07-1.47-13.54,1.31-25.9,4.57-38.61.88-3.41,0-7.95-1.64-11.2-3.75-7.54-5.81-15.56-3.37-23.29,2.55-8.07,2-15.75,1-23.64-.9-7.33-2.25-14.59-3.29-21.9q-4-28-7.94-56.1Zm83.91-94.68,3.11-.14L210,342.88l-2.41.18Zm8,65.29a5.91,5.91,0,0,0-2.61-3.71c-.53-.34-2.77.76-3.23,1.7-2.66,5.35-5.16,10.79-7.38,16.33-.62,1.54-.09,3.54-.09,5.48C211,486,218.49,474.77,217.86,468.69Zm27.56-46.08c-9.4-7-29-4.67-30.32,4.15C224.78,419.95,235,422.46,245.42,422.62Zm-45.78-135-2.26.28,3.71,31.35C208.55,307.71,197.26,298.53,199.64,287.62Z"/></svg>