<?xml version="1.0" encoding="utf-8"?>
<!-- Generator: Adobe Illustrator 21.0.0, SVG Export Plug-In . SVG Version: 6.00 Build 0)  -->
<svg version="1.1" id="Layer_1" xmlns="http://www.w3.org/2000/svg" xmlns:xlink="http://www.w3.org/1999/xlink" x="0px" y="0px"
	 viewBox="0 0 550.4 557.1" style="enable-background:new 0 0 550.4 557.1;" xml:space="preserve">
<style type="text/css">
	.st0{fill:#C9DAF4;}
	.st1{clip-path:url(#SVGID_2_);fill:#5475B6;}
	.st2{clip-path:url(#SVGID_2_);fill:#345AA4;}
	.st3{clip-path:url(#SVGID_2_);fill:#88AAD8;}
</style>
<g>
	<circle class="st0" cx="275.2" cy="275.2" r="275.2"/>
</g>
<title>Untitled-1</title>
<g>
	<defs>
		<circle id="SVGID_1_" cx="275.2" cy="275.2" r="275.2"/>
	</defs>
	<clipPath id="SVGID_2_">
		<use xlink:href="#SVGID_1_"  style="overflow:visible;"/>
	</clipPath>
	<path class="st1" d="M169.2,498.3l-17.7-6.5c0,0-20.3-1.3-21.1-8.6c-0.9-7.2,9.4-10.8,9.4-10.8s-1.8-8.1,0.4-10.8
		s32.9-3.2,32.9-3.2l9.9,41.9L169.2,498.3z"/>
	<path class="st2" d="M332.2,228.3c0,0,65.3,16.2,69.4,17.1s35.6,1.3,47.3,30.2s0,94.2,0,94.2s7.7,70.3-14.4,120.8
		s-30.5,51.4-30.5,51.4l-35.2-7.8c0,0-3.1,11.4-0.9,23.1H142.9c0,0,16.2-28.6,21.2-33.6c5-5,3.9-9.1,6.3-15.9
		c1.5-4.4,2.2-9,2.2-13.6l-9-0.9c0,0-22.1-10.8-23.9-34.7s-8.1-59.9-6.3-87.9s-6.9-36.5-3.2-85.1c3.7-48.6,66.7-39.6,66.7-39.6
		L332.2,228.3z"/>
	<path class="st3" d="M210.9,305.2c0,0-42.8-45.4-42.3-78.3c0.5-32.9-3.7-150.9,21.1-176.2s48.2-22.5,64.5-18.9s59.5,34.7,74.4,87.9
		c0,0,19.4,129.3,53.2,177.5c0,0-28-3.7-33.3-4.5"/>
	<path class="st1" d="M148.8,449.9c0,0-13.3-19.8,27.2-68.9c0,0,28-39.4,39-103.6v-59.9c0,0-10.2-30.6-10.6-35.2s-8.9-31.1-8.9-31.1
		s-4-2.7-4.4-21.2s-2.2-46.4,4.1-60.4c0,0,9.5,21.2,27.5,26.6l15.8-7.7c0,0-13.5-6.7-16.7-14.8c0,0,17.1,12.6,24.3,11.3
		c0,0,14.4-3.6,19.4-2.2s22.5,11.3,28.4,18.9c5.9,7.7,9.5,22.5,10.4,26.6c0.9,4.1-1.4,20.7,0,23.4s-4.1,16.2-14.4,24.3l0.4,9
		c0,0,9.5-2.7,4.5,9.9c0,0,3.6,7.7-2.7,10.4c0,0-1.4,52.7,19.4,69.8c0,0,17.6,15.3,35.1,16.7c0,0-5.4,60.8-50.9,68.5
		c0,0-31.5,4.5-52.3-37.4c0,0-9,105.4-12.2,118.5s-4.5,17.6-4.5,17.6s53.2,9.9,73.9,11.3s57.7,0,57.7,0l46,71.2
		c0,0-20.3-2.2-32.4-3.1c-12.2-0.9-66.3,1.4-95.5-11.3c0,0-38.8-11.3-74.3-25.2c0,0-21.2,11.3-40.1-9.5c0,0-2.7-19.8-7.2-25.2
		C150.2,461.6,148.8,449.9,148.8,449.9z"/>
</g>
</svg>
