<?xml version="1.0" encoding="utf-8"?>
<!-- Generator: Adobe Illustrator 21.0.0, SVG Export Plug-In . SVG Version: 6.00 Build 0)  -->
<svg version="1.1" id="Layer_1" xmlns="http://www.w3.org/2000/svg" xmlns:xlink="http://www.w3.org/1999/xlink" x="0px" y="0px"
	 viewBox="0 0 550.4 550.4" style="enable-background:new 0 0 550.4 550.4;" xml:space="preserve">
<style type="text/css">
	.st0{fill:#C9DAF4;}
	.st1{fill:#5475B6;}
	.st2{fill:#88AAD8;}
	.st3{fill:#D8E1F3;}
	.st4{fill:#345AA4;}
	.st5{clip-path:url(#SVGID_2_);fill:#2A2D80;}
	.st6{fill:#FFFFFF;}
	.st7{fill:#2A2D80;}
</style>
<title>Untitled-1</title>
<circle class="st0" cx="275.2" cy="275.2" r="275.2"/>
<path class="st1" d="M260.8,106.8L258,61.1c0,0-1.5-16.4,2.9-19.6c4.3-3.2,13.9-3.2,17.5-7.9s12.1-18.3,38.5-14.3
	c9.3,1.4,11.4,5,11.4,5s9.7-0.3,24.3,17.8c5.7,7.1,8.9,2.9,9.3,8.2c0.4,5.3-7.4,54.9-7.4,54.9l-20.1,26.8l-45.7,5.7l-23.5-10.7
	L260.8,106.8z"/>
<path class="st2" d="M265.6,136.5l1.9,20.7l-0.8,14.9l0.9,16l32.5,17.1l19.8-10l11.9-11.7v-5.3c0,0,14.6-12.9,17.9-29.6
	c3.3-17.1,5.8-19.9,5.7-19.6c0,0,2-7.5,3.8-14.6s-0.3-10.7-4.9-5.3l1.1-25c0,0,0-10.4-2.1-15.7c0,0-7.5,3.6-29.6-5
	c-22.1-8.6-43.6-16.4-48.5-2.1s-0.3,23.6-0.3,23.6s-3.9,22.8-5,34.3l-4.1,0.4c0,0-0.5-18.9-4.5-18.9c0,0-9-8.1-8.2,9.6
	S253.2,133.6,265.6,136.5z"/>
<path class="st3" d="M304.3,364.1l-48.6-165.3c0,0,5.7-25.2,8.5-30c2.9-4.8,2.9-4.8,2.9-4.8l-0.5,8.3c0,0,13.8,17,34.3,26.1
	c0,0,1.2,12.8,31.9-20l21.3,25.2v131.8l-30.3,38.1L304.3,364.1z"/>
<path class="st4" d="M293.3,211.1l11.6,11.9c-1.8,6.7-3,13.5-3.4,20.5c-0.5,10,3.5,89.5,3.5,89.5l27,4.8c0,0,1.2-90-18.6-116.6
	l5.2-10c0,0-9.7-8-13.7-10.5S293.3,211.1,293.3,211.1z"/>
<g>
	<defs>
		<circle id="SVGID_1_" cx="275.2" cy="275.2" r="275.2"/>
	</defs>
	<clipPath id="SVGID_2_">
		<use xlink:href="#SVGID_1_"  style="overflow:visible;"/>
	</clipPath>
	<path class="st5" d="M446.6,389.1c-2.4-4.8-1-13.3-2.9-33.8c-1.9-20.5-3.3-29-3.3-29c2.4-22.8,0-44.3-2.9-51.4
		c-2.9-7.1-1.4-29-2.9-32.8s-3.8-20.9-3.8-20.9c-4.3-5.2-5.7-1.4-21.4-5.2c-15.7-3.8-59-21.9-59-21.9l-11.7-8.5
		c8.8,104.7-6.8,142.4-6.8,142.4l-27,5.3l-45.3-149.4l3.7-11.9c-3.7,3.5-7.1,7.3-10.2,11.4c-5.2,6.7-60,31.9-60,31.9
		c-19,4.3-27.6,8.1-27.6,8.1c-11.4,4.3-5.7,28.6-5.7,28.6c-7.6,9.5-11.9,44.7-11.9,44.7c-12.8,11.4-5.2,19.5-5.2,19.5
		c-5.6,7.5-7.7,17.1-5.7,26.2c-9.5,27.6-11.4,79.5-14.3,98.5c-2.9,19,13.8,27.2,13.8,27.2l58.1,22.1c0,49-6.7,79.6-6.7,79.6h240.8
		c-1.9-24.3-15.2-74-15.2-74c6.2,9.5,14.3-3.1,14.3-3.1l1.9,9.5c0,0,7.6-13.3,8.1-14.8c0.5-1.4,18.6-54.7,18.1-68.5
		C455.1,404.8,448.9,393.9,446.6,389.1z M189.1,418.9c0,0-1.5-6.1-3-9.9c4.3-7.9,7.6-16.3,10-25.1l5.7,37.8L189.1,418.9z"/>
</g>
<polygon class="st6" points="268.5,498.1 445.3,462.8 448,430.5 412.3,302.5 211.9,352.5 244.7,481.5 259,495.3 "/>
<path class="st2" d="M409.4,470.4c0,0,2.4,6.3,5.2,8.2c2.9,1.9,15.2,4.8,17.1,4.8c1.9,0,9,4.8,13.8,2.4s8.1-12.6,10-15.3
	c1.9-2.8,5.2-6.1,7.1-12.3c1.9-6.2,0-11,0-16.2s3-11.2-2.4-13.8c-5.4-2.6-8.1-16.2-19-15.2c0,0,0,8.5,3.3,14.3
	c0,0-24.8,6.2-23.3,15.2c0.6,1.9,2.3,3.2,4.3,3.3c0,0-6.2,5.7-1.9,10c0,0-4.3,3.8-0.5,10L409.4,470.4z"/>
<path class="st7" d="M265.4,435.2c0,0-55.6-11.7-55.2-10.7c0.4,1.1,8.5,66.1,8.5,66.1l47.1,22.9l3.9-15.3v-22.8l-15.6,1.9
	C254.2,477.1,250.4,443.6,265.4,435.2z"/>
<path class="st2" d="M252.3,477.2c0,0-1-42.4,11.4-41.9c0,0,19,5.2,28.1,3.8c9-1.4,23.4-5.2,38.6-1.9s32.8,4.3,38.1,9s4.8,9.5,0,10
	c-4.8,0.5-20.9,0-20.9,0l-9-2.9l-8.1,0.5l15.7,12.8l11.9,8.5l9.5,1.9l1,10.5c0,0-1,8.1-8.1,5.7c-4.6-1.5-9.4-2.3-14.3-2.4l-9,2.8
	l-16.2,5.8c0,0-1.9,8.5-9.7,5.2c-7.9-3.3-25.9-26.2-38.3-28.6C260.4,473.8,252.3,477.2,252.3,477.2z"/>
</svg>
