<svg id="Layer_1" data-name="Layer 1" xmlns="http://www.w3.org/2000/svg" xmlns:xlink="http://www.w3.org/1999/xlink" viewBox="0 0 298.53 297.65"><defs><style>.cls-1{fill:none;}.cls-2{fill:#2a2d80;}.cls-3{clip-path:url(#clip-path);}.cls-4{fill:#d8e1f3;}.cls-5{fill:#fff;}</style><clipPath id="clip-path"><rect class="cls-1" x="5.11" y="1.99" width="293.41" height="292.93" transform="translate(303.64 296.91) rotate(-180)"/></clipPath></defs><title>Untitled-1</title><path class="cls-2" d="M286.79,154.09c-3.08-7.23-8.55-9.81-16.32-9.51-11.49.43-23,.09-34.53.14-9.27,0-14.07,4.79-14.08,14.18q-.07,51.6,0,103.2c0,5.95-.12,11.9.06,17.85.25,8.64,5.09,13.34,13.69,13.39,12.16.07,24.32-.16,36.47.13,7.37.18,11.82-3.35,14.71-9.64Z"/><g class="cls-3"><path class="cls-4" d="M117.17,1.63c4.47,1.3,3.86,4.87,4.22,8.1C123,24.24,124.06,38.85,129,52.81c2.79,7.85,6.39,15.28,13.27,20,14.43,10,21.94,24.42,28.17,40.1a148.24,148.24,0,0,0,19.45,35.21c5.42,7.14,11.29,13.1,24.1,13.51,0,1.46,0,2.94,0,4.42q-.25,56.5-.45,113c0,2.49-.65,3.4-3.2,3.87-16.7,3-33.28,6.93-50.07,9.3-15.27,2.15-30.77,2.76-46.17,4-2.69.21-5.42,0-8.13.71H285.08a15.4,15.4,0,0,1-3.19.68q-140.14,0-280.29,0,0-148.47,0-296.94C54.52.71,126.38,1.39,117.17,1.63ZM0,0C0,48.53,3.26,98.49,3.26,147.4c1.22-2.81,2.22-5.33,3.38-7.77,5.86-12.33,15.21-19.52,29.25-19.86,5.54-.14,11.08-.64,16.62-.66,13.32-.06,26.65.19,40,.08,11.72-.09,11.79.21,9.85-12.26-1-6.35-4.4-12.37-7-18.42-3.63-8.43-8-16.57-11.21-25.15-3.92-10.47-4.38-21.52-2.3-32.47C84.76,15.42,94,5.56,110.16,1.51,74.09,1.51,35.55,0,0,0ZM68.34,296.84c-4.4-.69-7.87-1.22-11.34-1.79-10.68-1.76-18.76-8-25.83-15.61-4-4.33-6-9.5-4.81-15.61.93-4.86-.76-9.11-3.89-12.76-3-3.49-6.15-6.84-9.32-10.17-4-4.23-4.83-9-2.7-14.35,1.31-3.28,2.71-6.53,3.91-9.86,1.67-4.63,1-8.68-2.79-12.24a31.86,31.86,0,0,1-5.45-6.89c-3.79-6.46-3-12.7,2-18.22,5.22-5.79,5.57-9.1,1.59-15.84-1.08-1.83-2.27-3.58-3.37-5.4s-2-3.41-3.16-5.48v144.2Z"/></g><circle class="cls-5" cx="270.17" cy="160.2" r="4.8"/></svg>