<svg id="Layer_1" data-name="Layer 1" xmlns="http://www.w3.org/2000/svg" viewBox="0 0 301.53 309.94"><defs><style>.cls-1{fill:#d8e1f3;}</style></defs><title>Untitled-1</title><path class="cls-1" d="M247.65,52.44v257.5H61.26V52.44ZM78.08,252.31H215.72V238.14H78.08Zm0-107.37H209.22V130.73H78.07Zm0-45.43H212.68V85.47H78ZM78,204H210.83V189.94H78ZM202.9,214.54H78.09v14H202.9ZM78.05,122.21H194.3V108.16H78.05Zm0,45.35h98.82v-14.2H78.06Zm85.49,95.28H78.1v14h85.46Z"/><path class="cls-1" d="M279.06,306.48l-27.49-2.4c.85-24-1.51-47.94,2.16-71.76l-.88.16c-.38-1.05-1.09-2.1-1.1-3.16-.08-10.24-.14-20.48,0-30.72.06-4.33.67-8.66.83-13,0-1.29-.83-2.6-.83-3.9-.06-14,0-28,0-42a10.6,10.6,0,0,1,.13-1.13h3.41l1.29-14.15-4.66-.61V93l10.79.87,1.27-14.31-12.18-1.16V48.41H114.29l1.33-15.06L301.53,49.62Z"/><path class="cls-1" d="M57.11,70.54v8.32L26.37,84.32,28.84,98.5,57,93.58v8.3l-26.74,4.75,2.5,14.2L57,116.59v8.3L34.23,129l2.48,14.17,20.35-3.51V161.9l-16.49,3L43,179,57,176.64v10.29l-12.16,2.2,2.48,14.14,9.74-1.6v9.25l-8.1,1.54,2.5,14.13,5.56-.92v10.22l-3.77.89c.76,4.35,1.44,8.55,2.26,12.72.13.65.88,1.17,1.67,2.15,0,10,0,20.51,0,31A2.11,2.11,0,0,1,56,284.32c-3.59.74-7.22,1.31-11.22,2L0,32.41,183.81,0l6.33,35.9L112,29.08c-.46,5.15-1,10.18-1.32,15.22-.1,1.57-.45,2.38-2.18,2.53-5,.42-9.91,1.34-14.88,1.44-11.27.22-22.54.07-33.82.07H57.24v7.5L22.43,62l2.49,14.2Z"/></svg>