<svg id="Layer_1" data-name="Layer 1" xmlns="http://www.w3.org/2000/svg" viewBox="0 0 142.53 142.53"><defs><style>.cls-1{fill:#fff;}.cls-2{fill:#5195cf;}</style></defs><title>Untitled-1</title><circle class="cls-1" cx="71.27" cy="71.27" r="71.27"/><path class="cls-2" d="M73.28,17.78c2,.27,4,.5,6,.83a39.57,39.57,0,0,1,14.52,5.27,27,27,0,0,1,7.3,6.57,25.29,25.29,0,0,1,5,14.55,22.83,22.83,0,0,1-3.33,13.33,33.82,33.82,0,0,1-5.83,7,114.86,114.86,0,0,1-12.26,9.4A18.41,18.41,0,0,0,77.82,84a16.76,16.76,0,0,1-2.35,4.35c-1.22,1.66-3.15,2.19-5.13,2.43a9.57,9.57,0,0,1-6.53-1.14c-3.16-2-4.44-5.07-4.4-8.71,0-4.39,1.9-8,4.74-11.28,3.26-3.71,7.3-6.52,11.12-9.58a31.3,31.3,0,0,0,7.52-7.8c2.81-4.57,2-12.19-2.78-15.58a13.76,13.76,0,0,0-5.74-2.33,19.85,19.85,0,0,0-9.45.54c-3.52,1.11-5.8,3.66-7.44,6.85-.92,1.78-1.75,3.6-2.66,5.38a10.92,10.92,0,0,1-3.51,4.26,10.1,10.1,0,0,1-7.87,1.29,8.7,8.7,0,0,1-4.48-2.22A8.28,8.28,0,0,1,36.37,44a20.62,20.62,0,0,1,3.76-11.39C44.09,26.8,49.58,23,56,20.42A40.94,40.94,0,0,1,66.87,17.9a3.58,3.58,0,0,0,.49-.12Z"/><path class="cls-2" d="M67.53,123.73a34.25,34.25,0,0,1-4.58-1.83,11.65,11.65,0,0,1-4.32-15.15,11.71,11.71,0,1,1,18.7,13.56,12.27,12.27,0,0,1-6.2,3.23,4.81,4.81,0,0,0-.55.18Z"/></svg>