<svg id="Layer_1" data-name="Layer 1" xmlns="http://www.w3.org/2000/svg" viewBox="0 0 142.53 142.53"><defs><style>.cls-1{fill:#fff;}.cls-2{fill:#5195cf;}</style></defs><title>Untitled-1</title><circle class="cls-1" cx="71.27" cy="71.27" r="71.27"/><path class="cls-2" d="M50.38,33.69h5.19l-.06.08s0,0,0,0c.74.14,1.49.25,2.22.42a19.13,19.13,0,0,1,6.29,2.46,2,2,0,0,0,1.61.45,19,19,0,0,1,3.21-.41,35.84,35.84,0,0,1,8,.29c1.43.21,2.86.45,4.26.77A36.52,36.52,0,0,1,89,40.69,40.69,40.69,0,0,1,95.8,45a39.19,39.19,0,0,1,6,5.9,37.23,37.23,0,0,1,3.59,5.05c.62,1,1.16,2.15,1.68,3.25a41.23,41.23,0,0,1,1.73,4.28,35,35,0,0,1,1.34,5.44,47.4,47.4,0,0,1,.6,5.67,36,36,0,0,1-.79,9.13,1.1,1.1,0,0,0,.06.72A25.57,25.57,0,0,1,111.64,89a22.06,22.06,0,0,1-.3,11.31,24.57,24.57,0,0,1-2.94,6.4,21.17,21.17,0,0,1-5.38,5.65,22.35,22.35,0,0,1-10.4,4.21c-.1,0-.34-.08-.26.2H86.74l.07-.07,0,0c-.1-.1-.23-.08-.35-.1a21.88,21.88,0,0,1-7-2.18,1.85,1.85,0,0,0-1.23-.19A39.08,39.08,0,0,1,32.66,77.44a38.1,38.1,0,0,1,.71-9.34.8.8,0,0,0-.11-.56c-.28-.52-.57-1-.81-1.57A22.6,22.6,0,0,1,31.07,50.5a21.38,21.38,0,0,1,1.87-4.76,22.54,22.54,0,0,1,7.44-8.25,22.16,22.16,0,0,1,9.71-3.61C50.2,33.87,50.42,33.94,50.38,33.69Zm21,65.1c.69-.06,1.62,0,2.56-.15a19.92,19.92,0,0,0,7.4-2.19A13.55,13.55,0,0,0,86,92.51a12.22,12.22,0,0,0,2.32-6.6,10.5,10.5,0,0,0-4.75-10.06,23,23,0,0,0-5.06-2.45c-2.12-.78-4.32-1.29-6.47-1.94a16.36,16.36,0,0,1-5.84-2.53,3.07,3.07,0,0,1-1-3.22A4.05,4.05,0,0,1,68,63a12,12,0,0,1,4.22-.4,9.45,9.45,0,0,1,2.07.26c.72.22,1.46.43,2.18.65a10.13,10.13,0,0,1,2.17,1,5.46,5.46,0,0,0,2.11.93,4,4,0,0,0,3.95-1.63A4,4,0,0,0,85,59a7.85,7.85,0,0,0-3.53-3,20.61,20.61,0,0,0-4.25-1.54,24.2,24.2,0,0,0-5-.67,23,23,0,0,0-4.37.38,17.27,17.27,0,0,0-6.53,2.45,13.17,13.17,0,0,0-3,2.68,11,11,0,0,0-2.38,5.58,19.29,19.29,0,0,0-.13,2.63,10.63,10.63,0,0,0,.7,3.53,9.29,9.29,0,0,0,2.84,4.07,17.68,17.68,0,0,0,2.84,2A34.79,34.79,0,0,0,66,78.72,45.28,45.28,0,0,0,70.36,80c1.26.4,2.55.72,3.8,1.18a9.08,9.08,0,0,1,3.77,2,2.48,2.48,0,0,1,.83,2.48,7.89,7.89,0,0,1-.38,1.13,3.94,3.94,0,0,1-1.69,1.87,6.36,6.36,0,0,1-3.49.93,28.63,28.63,0,0,1-3-.06A18.36,18.36,0,0,1,67.37,89a17.07,17.07,0,0,1-4.87-2.17,4.32,4.32,0,0,0-4-.87,4.71,4.71,0,0,0-2.46,1.61,5.26,5.26,0,0,0,0,5.75A6.55,6.55,0,0,0,58,95.12,17.26,17.26,0,0,0,63,97.6,28.33,28.33,0,0,0,71.4,98.79Z"/></svg>